<svg xmlns="http://www.w3.org/2000/svg" width="1280" height="709" fill="none" xmlns:v="https://vecta.io/nano"><g clip-path="url(#B)"><path fill="#f3f2ed" d="M0 0h1280v709H0z"/><mask id="A" maskUnits="userSpaceOnUse" x="0" y="0" width="1280" height="1683" mask-type="alpha"><path fill="#d9d9d9" d="M0 0h1280v1682.08H0z"/></mask><g mask="url(#A)"><path fill-rule="evenodd" d="M1615.89 214.704c136.78-24.402 270.52 76.011 366.22 176.799 86.28 90.859 151.6 220.607 128.03 343.704-21.98 114.809-217.25 128.657-240.41 243.236-29.01 143.577 169 282.127 107.39 414.997-55.32 119.34-233.76 164.69-361.23 132.51-125.82-31.77-149.39-203.81-249.3-286.66-89.38-74.12-239.85-64.53-296.48-165.92-58.77-105.223-44.07-243.444 6.79-352.712 48.16-103.468 173.57-135.379 256.76-213.471 101.26-95.048 145.56-268.1 282.23-292.483z" fill="#ffc0a7"/><path fill-rule="evenodd" d="M-405.299-608.462c156.615-21.029 321.619-128.822 454.027-42.545 141.574 92.249 172.589 285.26 177.739 454.203 5.336 175.021-28.35 356.084-149.176 482.775-123.171 129.151-307.925 216.144-482.59 179.661-158.996-33.21-197.844-234.816-315.877-346.438C-846.505.674-1097.8-24.46-1105.78-196.804c-7.95-171.53 205.909-259.729 353.909-346.705 105.351-61.912 225.473-48.693 346.572-64.953z" fill="#f0e6c4"/></g></g><defs><clipPath id="B"><path fill="#fff" d="M0 0h1280v709H0z"/></clipPath></defs></svg>