<svg xmlns="http://www.w3.org/2000/svg" width="469" height="393" fill="none" xmlns:v="https://vecta.io/nano"><style><![CDATA[#J{animation:cloud-right 3s linear 1s infinite alternate}#L{animation:cloud-left 4s linear 0s infinite alternate}#E{transform-origin:center;animation:tail 2s linear 1s infinite alternate}#K{animation:balloon 2s linear 0s infinite alternate}#B{transform-origin:50% 30%;animation:hand-left 1s linear 1s infinite alternate}#D{transform-origin:50% 30%;animation:fadeIn 1s linear 1s infinite alternate}#G,#H{transform-origin:11% 11%;animation:eye 4s linear 300ms infinite alternate}@keyframes balloon{from{transform:translateY(0%)}to{transform:translateY(-6px)}} @keyframes cloud-right{from{transform:translateX(0%)}to{transform:translateX(-20px)}} @keyframes cloud-left{from{transform:translateX(0%)}to{transform:translateX(60px)}} @keyframes tail{0%{transform:rotate(0deg)}33.33%,50%{transform:rotate(-2deg)}83.33%,100%{transform:rotate(0deg)}} @keyframes hand-left{from{transform:rotate(0)}to{transform:rotate(-6deg)}} @keyframes eye{0%{transform:scaleY(1)}1%,2%{transform:scaleY(0.2)}3%,50%{transform:scaleY(1)}51%,75%{transform:scaleY(0.4)}83.33%,100%{transform:scaleY(1)}} @keyframes fadeIn{70%{opacity:0}100%{opacity:1}}.B{fill:#da7827}.C{fill:#feaa15}.D{fill-rule:evenodd}.E{fill:#ec911e}.F{stroke:#da7827}.G{stroke-linecap:round}.H{fill:#62bdff}.I{stroke-width:1.491}]]></style><path d="M190.704 391.918c-5.58-.399-13.532-3.883-17.609-7.714-34.981-32.193-101.135-131.546-57.296-231.616 19.351-44.174 70.367-64.423 113.962-45.325 25.845 11.322 43.197 33.918 49.022 59.643 22.86-13.159 51.376-15.661 77.078-4.401 43.596 19.098 63.298 70.327 43.946 114.501-43.838 100.07-161.722 118.8-209.103 114.912z" fill="#ef4d4e"/><mask id="A" maskUnits="userSpaceOnUse" x="101" y="100" width="307" height="293" mask-type="alpha"><path d="M190.734 391.92c-5.58-.4-13.532-3.884-17.609-7.714-34.981-32.194-101.135-131.547-57.296-231.617 19.351-44.174 70.367-64.423 113.963-45.325 25.844 11.322 43.196 33.918 49.021 59.644 22.86-13.159 51.376-15.662 77.079-4.402 43.595 19.098 63.297 70.328 43.946 114.502-43.839 100.07-161.723 118.8-209.104 114.912z" fill="#ef4d4e"/></mask><g mask="url(#A)" class="D"><path d="M242.218 126.929c-4.806 3.101-11.39 6.176-19.163 8.51-1.266 4.988-8.614 8.816-17.489 8.816-6.296 0-11.823-1.926-14.956-4.827-9.564-.33-18.434-1.634-25.989-3.663-3.164 3.019-8.944 5.04-15.55 5.04-10.004 0-18.113-4.634-18.113-10.351 0-4.03 4.031-7.523 9.916-9.232-.566-1.273-.861-2.583-.861-3.921 0-12.266 24.812-22.21 55.418-22.21 20.877 0 39.058 4.627 48.507 11.461 7.904 1.033 13.812 5.164 13.812 10.102 0 5.29-6.781 9.654-15.532 10.275z" fill="#9d3536"/></g><g id="B"><path d="M118.481 35.225c7.548-3.475 17.904 4.695 21.255 7.262s20.711 16.38 20.863 31.486c.113 11.282-7.194 15.184-16.33 10.06-10.164-5.701-13.697-23.092-24.166-29.929-8.842-2.259-9.17-15.404-1.622-18.879z" class="C"/><path id="D" d="M96.725 44.055c1.233 1.161 2.347 3.834 2.347 3.834s.95-2.735 2.111-3.969 3.834-2.347 3.834-2.347-2.736-.95-3.969-2.111-2.347-3.834-2.347-3.834-.95 2.735-2.111 3.969-3.834 2.347-3.834 2.347 2.735.95 3.969 2.111z" fill="#ffce00" opacity="0"/><path id="D" d="M124.273 27.438c-2.473-1.01-11.79.037-15.169 2.813-2.679 2.201-5.109 5.409-5.401 6.277l-.028.157a.41.41 0 0 1 .028-.157c.412-2.279 1.244-6.619 5.711-9.678 4.571-3.131 12.205-1.171 14.859.588z" fill="#fde047" opacity="0"/></g><g id="E"><path d="M247.505 105.2c-10.341 5.41-12.94 1.833-26.669-2.655-9.995-3.266-14.041 8.39-5.809 12.442 16.75 8.245 33.202 10.152 46.012-2.881 7.681-7.814 4.909-19.466 7.894-21.442s5.084-.29 8.651.069c3.154.317 7.307-1.618 7.654-5.297.846-8.974-13.764-13.068-22.048-8.2-15.11 8.879-5.345 22.555-15.685 27.965z" class="E"/><g><mask id="F" maskUnits="userSpaceOnUse" x="210" y="75" width="76" height="47" mask-type="alpha"><path d="M247.505 105.2c-10.341 5.41-12.94 1.833-26.67-2.655-9.994-3.266-14.04 8.39-5.808 12.442 16.749 8.245 33.201 10.152 46.012-2.881 7.681-7.814 4.908-19.466 7.893-21.442s5.084-.29 8.652.069c3.154.317 7.307-1.618 7.653-5.297.847-8.974-13.763-13.068-22.047-8.2-15.111 8.879-5.345 22.555-15.685 27.965z" fill="#f39e0d"/></mask><g mask="url(#F)" class="B"><path d="M268.991 80.583c3.337 3.381 1.883 8.041.768 9.669l11.948 4.619 5.176-4.062.51-10.423-18.633-8.668-9.308 8.187c2.742-.51 6.202-2.703 9.539.678z"/><path d="M266.324 82.887c2.647 2.326 2.625 6.483 2.185 9.664l-1.282 4.886c.15-1.965-.614-8.148-3.702-11.576-2.925-2.554-6.672-1.211-7.927-.332l2.263-3.778c2.376-1.088 4.947-1.954 8.463 1.136z"/><path d="M261.702 88.525c4.024 2.221 4.931 7.072 5.136 10.276l-.575 4.165c.288-2.083-2.232-9.548-6.847-10.788s-5.435.74-6.489 1.853l.987-5.09c2.111-1.542 3.765-2.637 7.788-.416z"/></g></g></g><path d="M202.814 11.115c-6.768-1.214-12.558-1.518-12.558-1.518s-4.465-.155-11.266.98c-1.005-1.994 2.7-9.058-3.698-8.001-11.104 3.33-32.427 25.792-38.028 65.675-1.383 25.265 2.264 46.052 12.322 55.206 9.659 9.279 30.735 8.666 44.196 9.971 17.05-1.145 36.632-4.155 45.687-16.513 9.866-13.465 4.841-53.246-5.264-71.126-13.208-23.37-8.166-44.188-15.492-44.412-2.276.065-12.722 4.014-15.899 9.737z" class="C"/><path d="M193.382 26.464s-1.697 4.396-6.268 5.091-6.774-3.068-6.774-3.068-3.049 4.303-7.379 2.325c-2.744-1.432-1.28-5.588-1.28-5.588-16.43 3.895-16.569 17.795-16.569 17.795-.405 10.837 8.683 19.723 24.47 20.135 19.501.509 29.073-6.644 29.391-18.819 0 0 .836-13.507-15.591-17.872z" fill="#ffe7bf"/><g id="G"><ellipse cx="4.087" cy="4.122" rx="4.087" ry="4.122" transform="matrix(-.999659 -.026098 -.026098 .999659 197.874 39.8936)" fill="#3f2512"/><ellipse cx="1.115" cy="1.124" rx="1.115" ry="1.124" transform="matrix(-.999659 -.026098 -.026098 .999659 193.381 41.0879)" fill="#fff"/></g><g id="H"><ellipse cx="3.726" cy="4.122" rx="3.726" ry="4.122" transform="matrix(-.999659 -.026098 -.026098 .999659 168.368 38.5132)" fill="#3f2512"/><ellipse cx="1.115" cy="1.124" rx="1.115" ry="1.124" transform="matrix(-.999659 -.026098 -.026098 .999659 164.308 39.7744)" fill="#fff"/></g><path d="M178.19 58.737c-2.888-.1-4.685-5.998-4.685-5.998l3.74-1.774 4.558 1.974s-.703 5.899-3.613 5.798z" fill="#fe998e"/><path d="M183.445 49.985s-.268 2.977-2.689 2.914c-1.624-.042-3.297-1.951-3.487-1.956s-1.821 1.817-3.218 1.781c-2.421-.063-1.788-3.031-1.788-3.031" stroke-width="1.119" class="F G"/><mask id="I" maskUnits="userSpaceOnUse" x="171" y="9" width="32" height="18" mask-type="alpha"><path d="M185.749 9.726c5.733-.416 13.082.85 17.016 1.335l-11.417 15.174-20.225.389 4.969-15.435c.461-.2 3.891-.927 9.657-1.464z" fill="#d9d9d9"/></mask><g mask="url(#I)" class="B"><path d="M189.167 14.368c-2.111 4.363-4.732 9.811-1.633 10.547s5.709-5.095 7.575-9.034c1.849-3.906 6.316-10.32 6.316-10.32.453-1.904-.885-3.178-2.17-3.555-1.364-.4-1.914.498-2.911 2.273 0 0-4.081 3.692-7.177 10.089zm-10.85-.643c-3.497 5.962-4.269 10.505-1.88 10.319 2.938.515 5.271-4.96 7.007-8.134 2.397-4.385 6.95-10.738 6.95-10.738.452-1.904 2.09-1.713.804-2.09-1.364-.4-3.176-1.355-4.173.421 0 0-3.847 1.935-8.708 10.222z"/></g><path d="M196.242 94.768c12.835-3.795 18.729 12.028 18.729 12.028 2.407-2.587 6.427 4.801 6.427 4.801 1.809 4.725 1.708 11.609-3.801 18.417s-12.884 13.726-24.234 6.555c-15.792-14.103-11.824-36.966 2.879-41.801zm-60.97-4.001c12.297-5.283 20.018 9.733 20.018 9.733 2.084-2.853 6.949 4.008 6.949 4.008 2.354 4.479 3.379 11.933-1.288 19.343s-12.039 15.744-24.089 8.349c-16.09-12.912-15.619-34.896-1.59-41.433z" class="C"/><path d="M187.803 123.471c2.059 5.983 6.748 12.685 12.651 13.078s8.826-4.092 8.926-10.388-5.614-14.873-11.42-18.46c-10.023-2.819-12.575 5.109-10.157 15.77zm-57.525-3.207c2.751 5.699 8.199 11.8 14.107 11.493s8.281-5.106 7.637-11.369-7.331-14.106-13.519-16.983c-10.286-1.616-11.885 6.559-8.225 16.859z" class="E"/><path d="M215.983 108.4c-4.796-14.406-16.704-15.444-22.209-12.488-12.473 6.805-12.515 23.892-6.082 33.619 3.982 7.039 16.894 19.453 30.103.086m-61.31-27.644c-6.464-13.739-18.411-13.364-23.529-9.778-11.582 8.23-9.606 25.201-2.07 34.102 5.435 6.759 18.82 14.984 26.274 1.634" class="F G I"/><path d="M218.991 103.308c7.53 2.062 12.715-4.344 14.83-8.654s4.769-14.557 2.794-29.117c-3.677-20.368-9.898-15.731-17.97-9.516-6.996 5.385-1.053 15.308-.553 18.994s.583 9.788-1.329 11.476c-6.144 2.393-5.302 14.755 2.228 16.817z" class="C"/><path d="M217.179 74.201c1.039 2.897 2.066 11.188.503 11.205-7.185 2.922-6.273 14.78.397 17.513s13.463-3.116 15.387-7.546c1.343-3.094 3.834-9.392 4.164-16.446" class="F G I"/><path id="J" d="M454.326 125.415c7.172-1.594 10.234 1.154 10.977 6.916 6.504 2.788 3.531 14.496-11.523 11.367-3.717 6.289-21.362 3.889-24.719 2.572-1.701 2.319-11.523 5.39-18.028-.186-5.576 4.275-16.166 3.86-19.516-.372-14.497 3.717-25.756-2.109-22.523-12.992 2.125-9.563 15.052-9.519 21.25-8.301 2.657-7.172 9.519-6.53 12.618-5.313.996-4.316 7.57-13.281 25.898-14.609s24.681 13.392 25.566 20.918z" fill="#fff"/><g id="K"><path d="M389.225 100.978c-.052.194-.252.309-.446.257l-1.547-.234c-.15-.04-.306-.056-.462-.047l-6.031.169c-.201.012-.373-.141-.385-.342s.142-.373.342-.385l6.026-.351c.234-.014.468.01.693.071l1.553.416c.194.052.309.252.257.446z" fill="#7f4f16" class="D"/><path d="M389.044 100.631a.09.09 0 0 1-.112.064l-1.643-.413c-.178-.048-.364-.067-.548-.056l-3.016.085-3.01.266c-.051.003-.094-.035-.097-.085s.036-.094.086-.097l3.01-.266 3.016-.085a2.54 2.54 0 0 1 .697.059l1.553.417c.048.013.077.063.064.111z" fill="#d3954c" class="D"/><path d="M382.888 102.879l.103-.183c.019-.032.059-.043.092-.025l.749.402c.034.018.047.061.028.094l-.331.607s-.049.091-.109.059l-.921-.496c-.135-.073-.102-.222-.051-.317.062-.115.244-.247.44-.141z" class="E"/><path d="M386.569 103.042c-.397.026-.429-.121-.796-.451-.267-.24-.554.068-.353.309.409.488.897.775 1.477.545.347-.138.422-.54.542-.561s.163.061.269.122c.094.053.251.05.312-.06.151-.268-.249-.598-.575-.56-.594.068-.478.63-.876.656z" class="E"/><path d="M386.569 103.042c-.397.026-.429-.121-.796-.451-.267-.24-.554.068-.353.309.409.488.897.775 1.477.545.347-.138.422-.54.542-.561s.163.061.269.122c.094.053.251.05.312-.06.151-.268-.249-.598-.575-.56-.594.068-.478.63-.876.656z" fill="#f39e0d"/><path d="M387.58 102.57c.058.152-.052.277-.109.312l.309.31.218-.056.16-.318-.463-.528-.403.127c.092.022.231.001.288.153z" class="B"/><path d="M387.465 102.606c.051.109-.007.238-.065.331l-.108.135a.64.64 0 0 0 .045-.412c-.056-.12-.192-.13-.243-.12l.123-.087c.089-.001.181.008.248.153z" class="B"/><path d="M387.244 102.717c.094.125.056.289.018.392l-.075.122c.037-.061.062-.329-.065-.431s-.18-.052-.228-.032l.101-.145c.087-.019.154-.031.249.094z" class="B"/><path d="M384.883 103.639l-.003-.209c.001-.037.03-.067.067-.068l.85-.026c.039-.002.071.029.072.067l.016.691s.003.104-.065.106l-1.045.031c-.153.004-.2-.141-.203-.25-.004-.13.088-.335.311-.342z" class="C"/><path d="M385.605 97.835c.334.07.45.124.5.14l-.447.666-.91-.224.407-.632c.023-.003.185.005.45.05z" fill="#d9d9d9"/><path d="M381.217 106.016c-.279-.119-.471-.376-.511-.676l-.184-1.929c-.027-.942.113-2.418.113-2.418l4.109-.169 4.269-.078s.21.947.352 2.679c.085 1.03-.001 1.724-.085 2.117-.055.257-.257.443-.509.516-.604.175-1.773.489-2.6.553-1.257.097-2.039.208-3.277-.031-.54-.105-1.233-.376-1.677-.564z" fill="#b07938"/><path d="M380.37 100.663c.052-.194.252-.31.446-.258l1.786-.069c.15.041.239.005.407 0l3.199-.149c1.177-.069 2.649.33 2.649.33.2-.011.373.142.384.343s-.112.226-.312.237l-3.937-.115-2.015.06c-.259-.029-.364.051-.59-.009l-1.759.076c-.195-.052-.31-.252-.258-.446z" fill="#d3954c" class="D"/><path d="M381.683 95.989h-.001l-.015-.478c-.004-.151 1.291-.311 2.892-.358s2.903.037 2.908.187l.013.468c-.052-.145-1.335-.225-2.906-.179-1.601.047-2.896.208-2.891.359z" class="H"/><path d="M384.576 95.699c1.602-.047 2.896-.208 2.892-.358l.014.477c.005.151-1.29.311-2.891.358s-2.904-.036-2.908-.187l-.014-.472c.034.147 1.324.229 2.907.182z" class="H"/><path d="M394.934 84.527c-1.504 5.546-3.769 5.294-5.995 8.141-1.5 3.345.049 2.812-4.044 2.984-5.573.107-1.921.688-4.875-2.701-1.45-2.158-6.27-3.326-7.173-9.801-.2-6.027 4.622-10.637 11.378-10.653 7.396-.394 11.619 6.839 10.709 12.031z" fill="#15b8fe"/><path d="M394.932 84.528c-1.503 5.546-3.768 5.294-5.995 8.141-1.5 3.345.05 2.812-4.044 2.984-5.572.107-1.92.688-4.875-2.702-1.45-2.158-6.269-3.326-7.173-9.801-.2-6.027 4.622-10.637 11.378-10.653 7.396-.394 11.619 6.839 10.709 12.031z" fill="#0e8eeb"/><path d="M384.893 95.653c-5.572.107-1.92.688-4.875-2.702-1.45-2.158-6.269-3.326-7.173-9.801-.2-6.027 4.622-10.637 11.378-10.653l.67 23.156z" fill="#8ee4ff"/><path d="M385.504 99.872l-2.438-28.212c2.11 1.921 6.565 3.587 7.433 8.597.519 2.997.023 6.892-2.091 9.82-1.691 2.342-1.482 5.703-1.167 7.091l-1.737 2.704z" fill="#3ba4f0"/><path d="M385.464 99.459l-2.416-28.193c-1.756 2.249-5.866 4.644-5.875 9.728-.006 3.041 1.141 6.797 3.718 9.326 2.062 2.023 2.425 5.371 2.348 6.792l2.225 2.346z" class="H"/></g><path id="L" d="M69.175 191.184c5.736-1.274 8.184.923 8.778 5.531 5.202 2.23 2.824 11.594-9.215 9.091-2.973 5.029-17.084 3.11-19.769 2.057-1.36 1.854-9.215 4.31-14.418-.149-4.459 3.419-12.928 3.087-15.608-.297C7.35 210.39-1.655 205.73.931 197.026c1.699-7.648 12.038-7.612 16.995-6.639 2.124-5.735 7.612-5.222 10.091-4.248.797-3.452 6.054-10.622 20.712-11.684s19.738 10.71 20.447 16.729z" fill="#fff"/></svg>