<svg xmlns="http://www.w3.org/2000/svg" xmlns:xlink="http://www.w3.org/1999/xlink" width="1200" height="401" fill="none" xmlns:v="https://vecta.io/nano"><style><![CDATA[.B{fill:#397334}.C{fill:#5a8a38}.D{fill-opacity:.5}.E{fill:#659735}.F{fill:#66a458}.G{fill-rule:evenodd}]]></style><path d="M0 .771h1200v367H0v-367z" fill="#caf2ff"/><g fill="#fff"><path d="M767.011 194.527h52.978 19.283 79.287H939c.667-1.333.5-5.4-5.5-11-4.098-3.824-10.605-4.29-15.859-3.724-3.873-6.375-12.108-10.776-21.641-10.776-6.039-6.087-15.434-10-26-10-4.307 0-8.422.651-12.195 1.834-1.561-14.562-12.295-25.834-25.305-25.834-11.486 0-21.199 8.786-24.391 20.866-4.306-2.46-9.293-3.866-14.609-3.866-14.908 0-27.234 11.059-29.22 25.422-5.874-1.054-11.801-1.053-13.78 1.078-6.5 7-11.5 9.5-15 10.5-2.8.8-3.5 4-3.5 5.5h35.011zm-163.603-61.764c1.184-3.898 4.807-6.736 9.092-6.736 4.902 0 8.937 3.713 9.446 8.48 2.162.1 5.096.785 6.054 3.02 1.2 2.8.5 2.834 0 2.5h-58c.333-.5 1.3-1.7 2.5-2.5s3.167-1 4-1c.5-.833 2-2.6 4-3 2.5-.5 4-.5 6.5.5 1.036.415 1.458-.115 2.065-.879.857-1.078 2.084-2.621 5.935-2.621 3.379 0 5.49.952 7.135 1.694.454.205.873.394 1.273.542z"/><path d="M67.12 216.27c-.155-.606-.202-1.344-.12-2.243 0-3.866 3.806-7 8.5-7 3.687 0 6.825 1.933 8.003 4.636A6.97 6.97 0 0 1 88 210.027c3.21 0 5.915 2.161 6.741 5.107 7.332-1.438 12.427 2.716 14.259 5.393l-51-.5c0-.5.4-1.8 2-3 1.141-.856 4.386-.914 7.12-.757zm1044.76-76c.16-.606.2-1.344.12-2.243 0-3.866-3.81-7-8.5-7-3.69 0-6.83 1.933-8 4.636a6.99 6.99 0 0 0-4.5-1.636 7 7 0 0 0-6.74 5.107c-7.33-1.438-12.43 2.716-14.26 5.393l51-.5c0-.5-.4-1.8-2-3-1.14-.856-4.39-.914-7.12-.757z" class="G"/></g><path d="M913 292.027a22.33 22.33 0 0 0 9.863-2.276c9.718 6.869 22.99 12.276 30.137 12.276 3.84 0 7.451-1.96 10.593-5.017 2.425 3.057 7.818 5.017 18.407 5.017 8.651 0 13.344-1.942 15.712-4.974 1.912 1.267 4.038 1.974 6.288 1.974 1.66 0 3.25-.386 4.75-1.098 2.75 3.739 6.77 6.098 11.25 6.098 2.74 0 5.3-.879 7.51-2.414l15.49 10.914c4.67-1.333 13.8-6.8 13-18-.63-8.885-12.01-10.805-21.1-10.554-.85-8.974-7.19-15.946-14.9-15.946-.84 0-1.66.083-2.46.241-2.41-7.239-7.57-12.241-13.54-12.241-3.31 0-6.371 1.538-8.853 4.142-2.552-6.642-7.483-11.142-13.147-11.142-4.764 0-9.009 3.183-11.757 8.146-4.03-4.963-10.256-8.146-17.243-8.146-5.625 0-15.044 2.921-23.539 7.236-4.03-4.438-9.911-7.236-16.461-7.236-12.15 0-22 9.626-22 21.5s9.85 21.5 22 21.5z" fill="#d9f6ff" class="G"/><ellipse cx="396.5" cy="283.527" rx="25.5" ry="28.5" fill="#fff8d9"/><g fill="#d9f6ff"><path d="M475.506 289.396c-3.194 1.689-6.754 2.631-10.506 2.631a22.18 22.18 0 0 1-4.514-.463c-3.668 6.387-9.243 10.463-15.486 10.463-11.046 0-20-12.76-20-28.5s8.954-28.5 20-28.5c.321 0 .641.011.958.032 4.586-6.138 11.415-10.032 19.042-10.032 10.033 0 18.685 6.737 22.666 16.459 1.99-.946 4.12-1.459 6.334-1.459 6.984 0 13.132 5.101 16.709 12.832 3.844-4.26 8.836-6.832 14.291-6.832 11.586 0 21.08 11.602 21.937 26.327a55.32 55.32 0 0 1 6.063-.327c12.15 0 22 3.806 22 8.5s-9.85 8.5-22 8.5c-3.108 0-6.066-.249-8.747-.698-3.752 8.765-10.968 14.698-19.253 14.698-7.591 0-14.283-4.98-18.238-12.555-3.463 4.094-7.911 6.555-12.762 6.555-8.345 0-15.496-7.282-18.494-17.631z"/><path d="M1180.03 307.112c18.23-.164 32.97-20.273 32.97-45.055 0-24.884-14.86-45.057-33.2-45.057-12.71 0-23.76 9.7-29.34 23.945-1.27-.153-2.56-.231-3.86-.231-11.89 0-22.51 6.497-29.46 16.665-3.93-14.585-11.92-24.57-21.13-24.57-6.25 0-11.93 4.593-16.17 12.098-2.53-2.691-5.36-4.193-8.33-4.193-5.64 0-10.73 5.38-14.33 14.01-2.35 2.179-4.49 5.078-6.33 8.545-2.21-1.302-4.57-2.003-7.01-2.003-7.47 0-14.13 6.562-18.48 16.818-3.03-2.676-6.41-4.17-9.98-4.17-13.09 0-23.711 20.172-23.711 45.056s10.621 45.057 23.711 45.057c7.47 0 14.14-6.562 18.48-16.817 3.04 2.676 6.42 4.17 9.98 4.17 6.51 0 12.41-4.991 16.7-13.07 2.22 1.302 4.57 2.003 7.01 2.003 8.32 0 15.64-8.132 19.87-20.439 2.66 1.969 5.56 3.049 8.59 3.049 6.99 0 13.27-5.739 17.61-14.869 6.53 13.602 18.85 22.773 32.98 22.773 14.45 0 27.02-9.595 33.43-23.715z" class="G"/><path d="M27.185 299.575c52.509 1.68 108.489 1.583 106.777-5.548-2.401-10-13.667-10.5-19-9.5.167-1-.5-4.3-4.5-9.5s-11.333-6.833-14.5-7c-1.5-3.166-5.5-9.9-9.5-11.5a6.56 6.56 0 0 0-.553-.191C84.81 237.68 73.854 223.027 60.5 223.027c-7.502 0-14.248 4.625-18.914 11.986-4.388-5.098-9.987-8.154-16.086-8.154-10.402 0-19.35 8.89-23.316 21.638-3.156-1.602-6.591-2.482-10.184-2.482-9.144 0-17.266 5.699-22.376 14.514-4.356-2.742-9.335-4.297-14.624-4.297-17.121 0-31 16.296-31 36.398s13.879 36.397 31 36.397c9.947 0 18.801-5.501 24.473-14.053 3.77 2.455 8.025 3.837 12.527 3.837 10.8 0 20.172-7.948 24.843-19.59l5.781.204a18.19 18.19 0 0 0 2.876.229c.566 0 1.128-.027 1.686-.079z"/></g><path d="M86 293.027c-20 4-63 7.667-82 9h540c-8.333-5.333-35.2-16-76-16-51 0-53-31-70-44s-68 44-98 37-87 4-106 7-83 2-108 7zm698-18c-40 0-63.333 17.334-70 26v11h269v-11c-13.333-2.666-41.6-10.6-48-21s-12.667-7.666-15-5c-3.667-7.666-13-23.6-21-26-10-3-65 26-115 26z" fill="#a4d6ce"/><path d="M552 289.027c-145.6-2.4-534.667 7-711 12v108h1388v-108l-677-12z" fill="#7ecbc3" stroke="#7ecbc3" stroke-width="2"/><path d="M542 315.027c-15.621-4.686-263 41-263 41l755 7-8-26-131-22-30 12s-71.35-25.042-119-28c-64.848-4.025-164 28-164 28l-40-12z" class="F"/><path d="M685.446 272.924h-25.049-9.118-37.488-9.665c-.315-.628-.236-2.541 2.601-5.177 1.937-1.799 5.014-2.019 7.498-1.752 1.831-3 5.725-5.071 10.233-5.071 2.855-2.865 7.297-4.706 12.293-4.706 2.036 0 3.982.306 5.766.863.738-6.853 5.813-12.157 11.965-12.157 5.431 0 10.023 4.134 11.532 9.819a13.93 13.93 0 0 1 6.908-1.819c7.048 0 12.876 5.204 13.816 11.963 2.777-.496 5.579-.495 6.515.507 3.073 3.295 5.437 4.471 7.092 4.942 1.324.376 1.655 1.882 1.655 2.588h-16.554z" fill="#fff"/><path d="M565.5 344.527c-3-10-24-28.5-25.5-29.5 0 0 15.389 3.419 25.25 6.25s25.25 8.25 25.25 8.25c-7.333 8.334-22.6 23-25 15z" fill="#83be75"/><path d="M358 329.027c-40.938 2.819-104 15-104 15v13l74 5 180 50 131 14 288-24-55-66H604l-45 8s-122.472-20.407-201-15z" fill="url(#A)"/><path d="M369 341.527h-89l17.5 15 100 5.5c37.833-1 109.3-4.3 92.5-9.5-21-6.5-82.5-11-121-11zm155 36c41.6 3.2 99.667-10.333 123.5-17.5l-48-2.5-125 5.5c-.833 3.5 7.9 11.3 49.5 14.5z" class="F"/><path d="M440.5 330.027c-37.2-4-89.167-.667-110.5 1.5 30.5 0 96.2.5 115 2.5s72.167 9.833 96.5 13.5c18.333-2.5 61.1-7.4 85.5-7s135.167-3.167 187.5-5h-192l-67 7-115-12.5z" fill="#b6d87d"/><path d="M488 345.027c-14.437 1.48-34 15-34 15s75.538 8.965 124 7c28.227-1.144 72-7 72-7s-41.397-46.544-66-36-53.5 24-63 27-19.97-7.335-33-6z" fill="#cfd23c"/><path d="M604 352.027c-2.696-12.371-14.5-29-14.5-29 4 0 14.8 1.5 26 7.5s27 22.5 33.5 30l-43.5 4.5s-.412-8.006-1.5-13z" fill="#e0e444"/><path d="M-57 341.027l-16 54 636 28-93-69s-22.406-16.172-39-17c-18.762-.936-45 8-45 8s-40.5 5-67 5c-36.568 0-53.578-31.259-90-28-11.983 1.072-18.003 6.107-30 7-28.089 2.09-41.228-16.301-69-21-73.117-12.371-187 33-187 33z" fill="url(#B)"/><path d="M-68 335.027c-36.438 1.04-93 8-93 8v102l346-9 290 26-107-53-73-45s-86.624-1.471-142-5c-86.637-5.522-134.222-26.478-221-24z" fill="#76b64f"/><path d="M111.5 306.027c-14-1.2-39.667 1.333-50 3 15.5-2.5 50.2-2.6 73 9s49.333 11.667 58 11c-6.5 0-18.789-2.635-29.5-8.5-21-11.5-31.5-12.786-51.5-14.5z" fill="#0d9a6d"/><path d="M391 351.027c-49.907-2.412-119 43-119 43l-13 57 325 36 146.5-7s-75.304-7.242-74.5-36.5c.561-20.434 28.5-30.5 28.5-30.5s-114.673 8.589-189.5-15c-42.507-13.4-59.483-44.848-104-47z" fill="#b16f25"/><path d="M444 421.027c-3.2-26.8-36-57.5-52-69.5 19 0 46.4 14 62 26 19.5 15 44.5 22.5 79.5 29.5 28 5.6 104 7.667 138.5 8-4.833 6.667-13.2 39.3-20 44.5-8.5 6.5-204-5-208-38.5z" fill="#c88132"/><path d="M-20 356.027c-58-16.5-120.333-14.666-141-8v-5c16.5-2.5 50.028-5.073 84-7.5 42-3 118 6 169 16.5 40.8 8.4 158.5 11.333 193 11.5-5.219.803-25.876 8.745-50 17.254-4.569 1.611-95.763-10.862-100.5-9.254l36.975 9.7c18.874 4.25 37.395 8.432 35.025 9.187-17.366 5.539-34.199 10.142-46.5 11.613-46 5.5-111.431-26.493-180-46z" fill="#85cc59"/><path d="M241.5 322.027c-9.661-1.681-23.5 1.5-30.5 4.5 5.5 0 20.037-1.397 32 .5 17.384 2.755 33.167 10.333 42.5 15 0 0-12.5-7-18-10.5s-14.5-7.5-26-9.5z" fill="#0d9a6d"/><path d="M460.5 348.027c-18.4-12.8-37.333-12-44.5-10 4.5.5 27.29 10.974 39 18 27.5 16.501 45.5 23.667 55 27.5l-49.5-35.5z" fill="#178a66"/><path d="M167 401.027l-126 18v12l188 11h202s-76.268-73.376-138-78c-51.141-3.83-126 37-126 37z" fill="url(#C)"/><path d="M164 399.527c-128.146-13.879-327.5 41-327.5 41v40l495.5 3.5 49-25.5s-129.69-49.544-217-59z" fill="#3c692e"/><path d="M206 441.527c-26.5-24-93.5-43.5-96.5-44.5 0 0 62 0 109.5 11.5 45.046 10.906 114 33 114 33l-27.5 42H242c-1.333-1.166-13.071-21.234-36-42z" fill="#467c36"/><path d="M802.5 342.11c-15.6-16.8-54.5-35.667-72-43 0 0 21.75-2.333 63.5 7.417s63.25 18.25 63.25 18.25c-11.667 12.5-39.15 34.133-54.75 17.333z" fill="#83be75"/><path d="M896 314.027c-48.066 3.288-80.667 23.667-118 36l73 6 190 9-13-27c-42-7.667-79.728-27.575-132-24z" fill="#2d5f3c"/><path d="M984.5 326.527c-4.667 8.167-16.8 23.7-28 16.5-4.841-3.112-13.091-10.332-24-15-14.329-6.131-29.5-10.5-42-13.5 0 0 26-2.5 46 1s48 11 48 11z" fill="#36794a"/><path d="M864 347.027l-21 30 355 23v-40s-64.53-25.565-108-33c-87.34-14.935-226 20-226 20z" fill="#acd057"/><path d="M1068.48 356.984c-21.37-.461-49.22-22.106-60.48-32.871 0 0 47.88-4.037 98.78 3.46S1198 345.45 1198 345.45c-9.74 4.806-34.88 12.341-57.45 4.037-28.23-10.38-57.46-8.074-51.91-7.497 4.43.461 10.41 5.19 26.2 10.381-6.55 1.73-24.99 5.074-46.36 4.613z" fill="#d6e95e"/><path d="M705 387.027l-27 43 329 22 44-79-75-21s-68.344-15.187-111-7c-29.986 5.756-43.565 19.882-73 28-33.174 9.149-87 14-87 14z" fill="#eebb4d"/><path d="M928 344.027c-25.2-3.2-51.833-.667-63.5 1 0 0 24.426 11.071 41 13.5 14.493 2.124 38.5 4 38.5 4l28-12c-4.167-.833-18.8-3.3-44-6.5z" fill="#fdce68"/><path d="M954 348.027c-29.854 8.385-68 41-68 41h226l-37-23s-75.006-30.918-121-18z" fill="url(#D)"/><path d="M1005.5 378.027c-6.5-12.5-37.5-31.5-39-32.5 0 0 21-2 37.5 1s42 9 42 9c-3.5 4.833-12.1 13.3-18.5 8.5-8-6-22.5-9-22-8 .4.8 6.5 7 9.5 10-1 8.167-4.3 22-9.5 12z" fill="#339c58"/><path d="M762 379.527c-8.8 2.4-36.667 4.667-58 7l-16 27 115 3 124.5-26 11-18c-6.833-1.666-31.9-2.2-77.5 9s-103 9-42.5-18.5c-13.833 5.334-47.7 14.1-56.5 16.5z" fill="url(#E)"/><path d="M835 391.027c-18.333 3.667-70 32-70 32v16l493 8-7-51-74-5-38 25-74-36H896c-4.8 0-42.667 7.334-61 11z" fill="url(#F)"/><path d="M959 397.027c-77.647 30.462-209 44-209 44l102 29h434l-5-157s-74.5 35.982-126 41c-37.77 3.681-59.67-12.864-97-6-42.43 7.802-58.841 33.246-99 49z" fill="url(#G)"/><path d="M955 419.527c-19.6 5.6-63.167 4-82.5 2.5 0 0 46.449-9.885 75.5-20.5 26-9.5 62-33 62-33-10.167 14.667-35.4 45.4-55 51z" fill="#fcc85f"/><path d="M1166.5 352.027c10.8-1.6 50.67-13.666 69-19.5-17.99 11.5-35.49 24.5-66 29-15.89 2.346-73.5-12.5-59-11s42.5 3.5 56 1.5z" fill="#ffd278"/><path d="M1146.69 384c-70.7-17.929-131.92 29.158-153.69 54.942l279 31.085c-17.72-21.205-54.62-68.099-125.31-86.027z" fill="#f5a74e"/><path d="M1047 404.027c-102.828 9.231-251 83-251 83l135 19 335-6 15-69s-142.38-35.225-234-27z" fill="#90b648"/><path d="M651.501 358.527c-44.4-21.6 44.166-22.666 94-20.5-32.667 1.422-98.001 5.914-98.001 12.5 0 8.234 57 8 59.5 37s-51 29.973-44.5 62 95 13.5 107.5 64c10 40.4-91.5 78.5-143.5 92.5-23.5.5-58.9-2.3-12.5-17.5 58-19 92.5-50 96.5-75s-53-31.5-72.5-50.5-1.5-30.5 24.5-50.5 44.501-27-10.999-54z" fill="url(#H)"/><g opacity=".57"><ellipse cx="687.5" cy="353.027" rx="25.5" ry="1" fill="#769c27"/><use xlink:href="#I" class="B"/><use xlink:href="#J" class="C"/><use xlink:href="#I" x="22" class="B"/><use xlink:href="#K" class="C"/><use xlink:href="#K" x="16" class="B"/><use xlink:href="#L" class="E"/><use xlink:href="#L" x="31" y="4" class="B"/></g><ellipse cx="575" cy="385.027" rx="19" ry="1" class="F"/><g class="B"><use xlink:href="#I" x="-106" y="32"/><use xlink:href="#I" x="-84" y="32"/></g><use xlink:href="#K" x="-106" y="32" class="C"/><use xlink:href="#K" x="-90" y="32" class="B"/><use xlink:href="#L" x="-106" y="32" class="E"/><g fill="#769c27"><ellipse cx="735.5" cy="368.027" rx="9.5" ry="1"/><ellipse cx="741.5" cy="373.027" rx="4.5" ry="1"/></g><use xlink:href="#I" x="64" y="17" class="B"/><use xlink:href="#K" x="64" y="20" class="C"/><use xlink:href="#L" x="64" y="17" class="E"/><g class="B"><use xlink:href="#I" x="82" y="23"/><use xlink:href="#I" x="10" y="11"/></g><g class="F"><ellipse cx="672.5" cy="379.027" rx="9.5" ry="1"/><ellipse cx="676.5" cy="384.027" rx="4.5" ry="1"/></g><g fill="#a48e6b" class="D"><ellipse cx="702.5" cy="377.027" rx="9.5" ry="1"/><ellipse cx="706.5" cy="382.027" rx="4.5" ry="1"/><ellipse cx="709" cy="389.027" rx="5" ry="1"/><ellipse cx="708.5" cy="394.027" rx="4.5" ry="1"/><ellipse cx="678.5" cy="362.027" rx="4.5" ry="1"/><ellipse cx="690" cy="365.027" rx="5" ry="1"/><ellipse cx="694.5" cy="370.027" rx="4.5" ry="1"/></g><use xlink:href="#J" x="-29" y="35" class="C"/><use xlink:href="#I" x="31" y="18" class="B"/><use xlink:href="#K" x="10" y="14" class="C"/><g class="E"><use xlink:href="#L" x="10" y="14"/><use xlink:href="#I" x="38" y="26"/></g><g class="B"><use xlink:href="#I" x="49" y="40"/><use xlink:href="#L" x="37" y="33"/></g><use xlink:href="#L" x="2" y="30" class="E"/><use xlink:href="#K" x="-1" y="31" class="B"/><use xlink:href="#K" x="31" y="34" class="C"/><g class="E"><use xlink:href="#I" x="46" y="48"/><use xlink:href="#I" x="42" y="54"/></g><defs><linearGradient id="A" x1="590.5" y1="328.115" x2="590.5" y2="426.027" xlink:href="#M"><stop stop-color="#aabf6e"/><stop offset="1" stop-color="#53ae53"/></linearGradient><linearGradient id="B" x1="245" y1="329.027" x2="239" y2="388.027" xlink:href="#M"><stop stop-color="#0d7352"/><stop offset="1" stop-color="#064e37"/></linearGradient><linearGradient id="C" x1="236" y1="363.773" x2="236" y2="442.027" xlink:href="#M"><stop stop-color="#647d3a"/><stop offset="1" stop-color="#4b681a"/></linearGradient><linearGradient id="D" x1="999" y1="344.872" x2="999" y2="389.027" xlink:href="#M"><stop stop-color="#2b864a"/><stop offset="1" stop-color="#0c6c4d"/></linearGradient><linearGradient id="E" x1="768" y1="403.027" x2="808.5" y2="390.027" xlink:href="#M"><stop stop-color="#e8aa46"/><stop offset="1" stop-color="#e8aa46" stop-opacity="0"/></linearGradient><linearGradient id="F" x1="1011.5" y1="380.027" x2="1011.5" y2="447.027" xlink:href="#M"><stop stop-color="#8ebf5d"/><stop offset="1" stop-color="#6aa331"/></linearGradient><linearGradient id="G" x1="825" y1="450.027" x2="1218" y2="376.027" xlink:href="#M"><stop stop-color="#edab34"/><stop offset="1" stop-color="#ffc459"/></linearGradient><linearGradient id="H" x1="681.003" y1="337.25" x2="688" y2="492.027" xlink:href="#M"><stop stop-color="#c8e2ae"/><stop offset="1" stop-color="#fcf9bf"/></linearGradient><path id="I" d="M668 347.25c0 1.656-1.695 2.777-3.583 2.777s-3.417-1.216-3.417-3 1.53-3 3.417-3 3.142.445 3.583 3.223z"/><path id="J" d="M712.123 351.658c-1.393.896-3.253.077-4.274-1.51s-.826-3.532.674-4.497 3.351-.337 4.372 1.25 1.326 2.883-.772 4.757z"/><path id="K" d="M682 347.746c0-1.688-2.261-3.018-4.134-2.66-1.541.295-2.866 1.069-2.866 2.886s1.53 3.055 3.417 3.055 3.142-.452 3.583-3.281z"/><path id="L" d="M675 343.652c0-2.25-2.261-4.024-4.134-3.546-1.541.393-2.866 1.425-2.866 3.847s1.53 4.074 3.417 4.074 3.142-.603 3.583-4.375z"/><linearGradient id="M" gradientUnits="userSpaceOnUse"/></defs></svg>