<svg xmlns="http://www.w3.org/2000/svg" width="207" height="413" fill="none" xmlns:v="https://vecta.io/nano"><style><![CDATA[.B{stroke:#d3954c}.C{stroke-linecap:round}.D{fill-rule:evenodd}.E{fill:#d3954c}.F{fill:#da7827}.G{stroke-width:2.049}.H{stroke-width:2.506}]]></style><g class="D"><path d="M170.227 289.145c-.796 2.652-3.59 4.156-6.241 3.361l-21.184-3.849a20.05 20.05 0 0 0-6.338-.838l-83.04-.116c-2.767.08-5.075-2.099-5.154-4.866s2.099-5.075 4.866-5.154l83.041-2.39a30.1 30.1 0 0 1 9.506 1.256l21.184 6.355c2.652.796 4.156 3.59 3.361 6.241z" fill="#7f4f16"/><path d="M167.876 284.307c-.199.663-.898 1.039-1.561.84l-22.437-6.355a23.78 23.78 0 0 0-7.526-.994s-25.305-.525-41.52-.059-41.52 2.448-41.52 2.448c-.692.02-1.269-.525-1.289-1.216s.525-1.269 1.216-1.289c0 0 25.305-1.981 41.52-2.448s41.52.059 41.52.059c3.455 0 6.875.29 9.571 1.098l21.184 6.356c.663.198 1.039.897.841 1.56z" class="E"/></g><path d="M117.508 211.69l14.243 67.662-4.335-68.546" class="B H"/><path d="M82.612 257.453c9.08 5.243 17.047 23.148 9.724 26.603S77.29 269.918 75.52 268.739s-3.939-3.962-3.676-6.248c.541-4.704 4.851-8.454 10.769-5.038zm-.309 55.27l1.488-2.467a.94.94 0 0 1 1.272-.315l10.149 5.84c.458.264.614.85.347 1.306l-4.803 8.212s-.713 1.235-1.524.766l-12.468-7.198c-1.825-1.053-1.323-3.094-.577-4.386.895-1.549 3.464-3.289 6.116-1.758zm50.543 3.752c-5.48.199-5.857-1.844-10.769-6.527-3.575-3.41-7.652.712-4.983 4.097 5.431 6.888 12.019 11.03 20.09 8.1 4.84-1.757 6.025-7.258 7.69-7.491s2.215.907 3.654 1.782c1.273.773 3.426.794 4.318-.696 2.177-3.633-3.187-8.328-7.686-7.942-8.204.703-6.835 8.479-12.314 8.677z" fill="#ec911e"/><mask id="A" maskUnits="userSpaceOnUse" x="116" y="307" width="38" height="17" mask-type="alpha"><path d="M132.846 316.475c-5.48.199-5.857-1.844-10.769-6.527-3.575-3.41-7.652.712-4.983 4.097 5.431 6.888 12.019 11.03 20.09 8.1 4.84-1.757 6.025-7.258 7.69-7.491s2.215.907 3.654 1.782c1.273.773 3.426.794 4.318-.696 2.177-3.633-3.187-8.328-7.686-7.942-8.204.703-6.835 8.479-12.314 8.677z" fill="#f39e0d"/></mask><g mask="url(#A)" class="F"><path d="M146.938 310.392c.73 2.109-.83 3.79-1.633 4.255l4.13 4.378 3.017-.673 2.328-4.316-6.144-7.449-5.604 1.585c1.265.339 3.177.111 3.906 2.22z"/><path d="M145.345 310.829c.651 1.522-.2 3.28-1.031 4.539l-1.534 1.811c.462-.802 1.391-3.578.776-5.657-.723-1.675-2.583-1.865-3.293-1.747l1.724-1.143c1.228.021 2.494.174 3.358 2.197zm-3.103 1.452c1.256 1.757.658 3.997.096 5.397l-1.088 1.649c.544-.824.988-4.499-.717-5.96s-2.454-.787-3.126-.529l1.449-1.958c1.207-.226 2.13-.355 3.386 1.401z"/></g><g fill="#feaa15"><path d="M109.429 323.992l.055-2.88a.94.94 0 0 1 .943-.909l11.71-.016a.95.95 0 0 1 .953.957l-.053 9.513s0 1.426-.937 1.426h-14.396c-2.107 0-2.693-2.018-2.693-3.51 0-1.789 1.355-4.581 4.418-4.581z"/><path d="M131.011 247.744c-3.917-1.979-6.537-2.56-6.537-2.56s-2.702-.911-7.068-1.459c-.25-1.403-1.473-5.495-3.422-5.706-7.398.008-25.98 25.238-31.852 37.721-5.085 10.809-7.531 20.621-2.597 30.277 5.313 10.397 14.059 12.306 24.477 15.532 10.635 2.414 19.885 2.249 27.68-3.654 8.492-6.432 12.521-19.127 10.961-32.141-1.957-16.321 3.829-39.027-1.902-40.563-1.403-.376-8.594 1.554-9.74 2.553z"/></g><path d="M121.794 255.492s-.936 2.845-3.875 2.595-3.747-2.913-3.747-2.913-2.533 2.216-4.926.343c-1.731-1.355.042-3.376.042-3.376-10.989-.358-13.267 8.143-13.267 8.143-2.012 7.508 2.779 13.681 12.514 16.289 12.025 3.223 19.032.21 21.043-7.297 0 0 1.76-8.628-7.784-13.784z" fill="#ffe7bf"/><path d="M108.32 273.623c-1.777-.493-2.013-4.421-2.013-4.421l2.585-.543 2.534 1.905s-1.315 3.555-3.106 3.059z" fill="#fe998e"/><g class="C"><path d="M112.895 268.978s-.61 1.807-2.103 1.407c-1.002-.268-1.756-1.702-1.873-1.733s-1.401.856-2.262.625c-1.493-.4-.658-2.147-.658-2.147" stroke="#da7827" stroke-width=".714"/><path d="M117.544 266.424s.873-.505 2.362-.106 2.679 1.457 2.679 1.457m-23.069-6.181s.873-.506 2.362-.106 2.678 1.456 2.678 1.456" stroke="#3f2512" stroke-width="1.423"/></g><mask id="B" maskUnits="userSpaceOnUse" x="109" y="243" width="20" height="13" mask-type="alpha"><path d="M121.7 244.442c4.57 1.101 6.144 1.892 6.818 2.134l-6.41 8.984-12.438-3.456 5.858-8.531c.318-.038 2.548.144 6.172.869z" fill="#d9d9d9"/></mask><g mask="url(#B)" class="F"><path d="M120.76 247.355c-1.888 2.45-3.91 5.859-2.15 6.876s3.83-2.581 5.612-4.717c1.721-2.064 5.528-5.232 5.528-5.232.625-1.081-1.636-3.173-2.353-3.638-.761-.494-.409 1.129-1.343 2.032 0 0-2.891 1.562-5.294 4.679zm-6.345-1.7c-1.888 2.45-3.91 5.86-2.15 6.876 1.936 1.118 3.883-3.032 5.486-5.305 1.515-2.148 4.785-5.677 4.785-5.677.625-1.082-.767-2.14-1.484-2.605-.761-.494-1.132.011-2.066.915l-4.571 5.796z"/></g><path d="M151.34 275.871c-10.485 0-26.337 11.523-21.723 18.177s20.099-4.721 22.222-4.857 5.393-1.462 6.308-3.573c1.884-4.344.027-9.747-6.807-9.747z" fill="#feaa15"/><path d="M142.398 293.838c-1.702.837-4.328 1.673-5.761 1.966m5.186-17.517c-2.02.875-5.426 2.88-7.389 4.487" stroke="#ec911e" stroke-width=".952" class="C"/><path d="M58.032 355.199c-3.787-1.74-6.318-5.352-6.75-9.497-.734-7.05-1.751-18.316-1.746-26.609.008-12.976 2.527-33.226 2.527-33.226l57.681 3.759 57.681-3.759s2.506 13.115 3.759 37.006c.745 14.203-.724 23.712-2.038 29.088-.858 3.51-3.707 5.98-7.205 6.884-8.377 2.163-24.588 6.004-35.99 6.548-17.336.828-28.133 2.041-45.068-1.755-7.386-1.656-16.818-5.666-22.85-8.439z" fill="#b07938"/><g class="D"><path d="M51.612 283.27c.8-3.262 3.615-3.572 6.281-2.593l17.517 7.819c2.065.759 4.34 1.942 6.661 1.942l41.449-.84c16.301-.574 39.227-4.553 39.227-4.553 2.782-.098 5.101 2.582 5.182 5.987s-2.11 7.785-4.892 7.883c0 0-15.266 5.251-39.227 6.095-16.3.575-41.739-.071-41.739-.071-3.581-.625-6.459-1.95-9.557-3.087l-17.524-9.361c-2.665-.979-4.178-5.959-3.378-9.221z" fill="#976121"/><path d="M48.478 281.254c.795-2.652 3.59-4.156 6.241-3.361l21.184 6.355c2.054.617 4.317 1.578 6.626 1.578 0 0 25.018 1.037 41.232.571s41.52-3.701 41.52-3.701c2.767-.08 5.075 2.099 5.155 4.866s-2.099 5.074-4.866 5.154c0 0-25.306 3.234-41.52 3.701s-41.52-.058-41.52-.058c-3.562-.508-6.425-1.585-9.507-2.509l-21.184-6.355c-2.651-.796-4.156-3.59-3.361-6.241z" class="E"/></g><g class="B H"><path d="M71.307 209.916l-18.783 71.216 37.389-69.898m55.558-1.318l20.999 75.667-41.84-75.667"/><path d="M100.594 211.696l-20.475 76.558 8.066-76.558"/></g><g class="D"><path d="M108.415 213.696c22.049 0 39.923 1.683 39.923 3.758v-6.576c0-2.075-17.874-3.757-39.923-3.757s-39.924 1.682-39.924 3.757v6.571c.03-2.073 17.893-3.753 39.924-3.753z" fill="#734f19"/><path d="M108.415 214.636c22.049 0 39.923-1.682 39.923-3.757v6.575c0 2.075-17.874 3.758-39.923 3.758s-39.924-1.683-39.924-3.758v-6.57c.03 2.073 17.893 3.752 39.924 3.752z" class="E"/></g><g class="B"><path d="M144.992 210.333c.834.186 1.469.37 1.911.546-.442.175-1.077.359-1.911.545-1.963.437-4.841.837-8.44 1.176-7.187.677-17.138 1.097-28.142 1.097s-20.955-.42-28.142-1.097c-3.599-.339-6.477-.739-8.44-1.176-.835-.186-1.469-.37-1.911-.545.443-.176 1.077-.36 1.911-.546 1.963-.437 4.841-.837 8.44-1.176 7.187-.677 17.137-1.097 28.142-1.097s20.955.42 28.142 1.097c3.599.339 6.477.739 8.44 1.176z" stroke-width="1.879"/><path d="M143.432 125.439c-3.95 28.43-7.121 60.366-7.121 89.021m-67.655-46.291c4.386 13.054 7.83 26.366 11.618 39.557.664 2.312 1.248 4.56 2.408 6.718.447.831 1.108 1.75 1.108 2.686m23.144-41.839c.486 12.757 1.78 25.513 1.78 38.279" class="C G"/></g><path d="M27.794 125.138c3.564.12 6.521.589 8.892-2.075 8.022-9.011 19.562-15.116 30.529-5.631 22.828 19.742 13.832 53.747 7.41 67.283-7.41 3.333-36.673 6.424-58.094-12.449-33.968-29.927-8.136-47.783 11.263-47.128z" fill="#a93434"/><path d="M73.106 78.259c5.853 22.314 9.929 44.972 15.569 67.326 3.125 22.584 3.57 43.949 6.686 71.547" class="B C G"/><path d="M47.738 43.198c5.769 2.257 8.326.338 12.228-2.052 8.456-5.18 12.174-5.642 20.692-5.642 5.957 0 8.32-1.331 17.244 11.798s-4.326 67.194-20.379 68.22c-20.066 1.283-69.51-16.813-67.722-57.192.978-22.07 30.726-17.953 37.937-15.132z" fill="#c44141"/><path d="M115.835 78.257c-1.882 14.728 5.944 123.964 4.524 138.739-.09.934-.071 1.869-.071 2.805" class="B C G"/><path d="M121.436 113.135c-7.178 11.125-6.364 34.66-5.059 45.037 1.285 8.695 7.845 21.761 14.928 27.147 6.305 4.793 21.232 3.275 50.093-24.142s20.629-56.224 3.008-65.452-25.219 8.152-33.115 5.643-20.882-2.14-29.855 11.767z" fill="#d94d4e"/><path d="M97.375 197.834c-1.665.592-4.409.592-6.074 0-14.206-4.882-45.948-25.249-45.948-59.768 0-15.238 12.197-27.567 27.236-27.567 8.915 0 16.802 4.34 21.749 11.046 4.948-6.706 12.883-11.046 21.749-11.046 15.039 0 27.236 12.329 27.236 27.567 0 34.519-31.743 54.886-45.948 59.768zm20.971-96.215c-1.938.689-5.13.689-7.067 0-16.53-5.68-53.464-29.378-53.464-69.544C57.815 14.345 72.008 0 89.506 0c10.374 0 19.55 5.049 25.306 12.853C120.569 5.049 129.803 0 140.119 0c17.498 0 31.691 14.345 31.69 32.075 0 40.166-36.934 63.863-53.463 69.544z" fill="#ef4d4e"/></svg>